<svg width="69" height="44" viewBox="0 0 69 44" fill="none" xmlns="http://www.w3.org/2000/svg">
<path d="M17.9157 0L17.4399 0.0796707C15.948 0.259959 14.5292 0.827327 13.3243 1.72545C13.058 1.88479 12.819 2.09876 12.5549 2.31274C12.5248 2.26451 12.5061 2.20999 12.5003 2.15339C12.4457 1.85747 12.4206 1.54334 12.3683 1.2497C12.2886 0.771671 12.0223 0.528106 11.5443 0.528106H10.2946C9.52517 0.528106 9.39314 0.691999 9.39314 1.43635V24.4841C9.42046 24.8301 9.62988 25.0122 9.92125 25.0395H12.234C12.5527 25.0395 12.7371 24.8301 12.7621 24.4841C12.7894 24.3771 12.7894 24.2701 12.7894 24.1654V16.1573C12.8964 16.2643 12.9783 16.3166 13.0307 16.369C14.9701 17.9897 17.2009 18.5201 19.6457 18.0421C21.8765 17.5914 23.4152 16.237 24.3986 14.2452C25.168 12.7314 25.4821 11.1926 25.5095 9.51955C25.5618 7.68712 25.4025 5.92297 24.6331 4.19753C23.7294 2.07372 22.1906 0.664684 19.8801 0.186657C19.5341 0.106986 19.1654 0.0796712 18.8194 0.027316C18.5007 1.90799e-07 18.207 0 17.9134 0H17.9157ZM35.6072 0C35.5036 0.0308681 35.3965 0.0484599 35.2885 0.0523547C34.2319 0.0965466 33.1825 0.247553 32.1563 0.503065C31.4916 0.662407 30.8542 0.899145 30.2169 1.11084C29.8185 1.24287 29.6319 1.53651 29.6319 1.95991C29.6592 2.30591 29.6319 2.67695 29.6319 3.02295C29.6592 3.55333 29.8732 3.68991 30.3785 3.55788C31.2276 3.34391 32.0766 3.10717 32.9257 2.94783C34.2528 2.70882 35.6072 2.60183 36.9616 2.78849C37.6786 2.92051 38.3433 3.10717 38.794 3.71722C39.1924 4.22257 39.354 4.85766 39.3813 5.49503C39.4086 6.39872 39.4086 7.11349 39.4086 8.01491C39.4086 8.06726 39.4086 8.11962 39.3813 8.14466H39.247C38.1068 7.86372 36.9433 7.68696 35.7711 7.61655C34.5487 7.5642 33.3286 7.61655 32.1609 8.04222C30.7541 8.52025 29.6091 9.36931 28.9467 10.751C28.4414 11.8141 28.3594 12.9318 28.5187 14.0722C28.7578 15.6132 29.5044 16.781 30.8588 17.5208C32.1609 18.2378 33.5403 18.3175 34.9744 18.1035C36.5924 17.8641 38.1102 17.1739 39.354 16.1118C39.4064 16.0594 39.461 16.0344 39.5134 15.982C39.593 16.4077 39.6499 16.8083 39.7273 17.1794C39.7797 17.5254 39.9959 17.7348 40.3146 17.7621H42.0924C42.2293 17.7568 42.3587 17.6985 42.4535 17.5995C42.5482 17.5006 42.6007 17.3687 42.6 17.2317C42.6274 17.152 42.6273 17.0428 42.6273 16.9381V5.60657C42.625 5.1429 42.5862 4.68014 42.5113 4.22256C42.2996 2.8158 41.7146 1.64578 40.4398 0.901421C39.7228 0.47575 38.9283 0.264053 38.0793 0.134303C37.6809 0.0796711 37.3053 0.0523553 36.9092 0H35.6072ZM44.8126 0.0045523C44.5463 0.0045523 44.4143 0.24129 44.4666 0.505342C44.519 0.721592 44.6009 0.960605 44.6806 1.17458C46.8044 6.43287 48.9532 11.6866 51.1044 16.9722C51.291 17.4206 51.316 17.7962 51.1044 18.2469C50.7629 19.0414 50.467 19.8631 50.0959 20.6598C49.7773 21.3769 49.2469 21.9118 48.4502 22.1235C47.9198 22.2578 47.3348 22.3102 46.7794 22.2305C46.513 22.2032 46.2444 22.1508 45.9781 22.1235C45.6048 22.0962 45.4227 22.2533 45.3954 22.6516V23.7192C45.4227 24.3315 45.6093 24.5956 46.2194 24.7026C46.8044 24.8073 47.4122 24.8847 48.0495 24.9097C49.907 24.9348 51.373 24.1972 52.329 22.5765C52.7177 21.9405 53.0549 21.2745 53.3374 20.5847C55.9097 14.079 58.4591 7.60062 61.0086 1.06759C61.0891 0.880308 61.1427 0.682593 61.1679 0.480304C61.218 0.161619 61.0587 0.00227566 60.7696 0.0091046H58.623C58.4408 -0.000593062 58.2603 0.0480247 58.1076 0.147901C57.9549 0.247777 57.8381 0.393715 57.774 0.564527C57.7216 0.723869 57.667 0.853618 57.6146 1.01296L53.8177 11.8755C53.5514 12.6449 53.2555 13.4394 52.9891 14.2884C52.9345 14.1541 52.9095 14.1018 52.8822 14.0221C51.4754 10.1455 50.0982 6.27353 48.6915 2.39696C48.4798 1.75959 48.2407 1.14499 48.0017 0.532658C47.9556 0.385431 47.863 0.257097 47.7379 0.166833C47.6127 0.0765691 47.4617 0.0292218 47.3075 0.0318683C46.4834 0.00455249 45.6617 0.0045523 44.8126 0.0045523ZM17.8906 2.75889C19.5114 2.8932 20.8385 3.69218 21.5282 5.5747C21.9539 6.74245 22.0608 7.86922 22.0608 9.09161C22.0608 10.2343 21.9834 11.245 21.6397 12.3331C20.8954 14.6435 19.195 15.545 17.0165 15.4402C15.4755 15.3606 14.1734 14.7733 12.951 13.9242C12.819 13.8446 12.7393 13.7171 12.7644 13.5828V4.56629C12.7416 4.40695 12.819 4.2772 12.951 4.19753C14.4375 3.1618 16.0832 2.62687 17.8906 2.76117V2.75889ZM35.1201 9.93157C35.5753 9.89287 36.0306 9.90197 36.4859 9.95433C37.3873 10.034 38.2932 10.1911 39.1947 10.3231C39.3836 10.3504 39.4314 10.4301 39.4314 10.5894C39.4041 11.1221 39.4314 11.6274 39.4314 12.1601C39.4314 12.6905 39.4064 13.1708 39.4064 13.7034C39.4337 13.8354 39.3517 13.9379 39.247 14.0176C38.0224 14.8939 36.6976 15.4812 35.1815 15.6406C34.5715 15.6929 33.9591 15.6929 33.3764 15.4539C33.0511 15.3346 32.7589 15.1396 32.5238 14.8852C32.2887 14.6307 32.1175 14.3239 32.0243 13.9902C31.8185 13.3077 31.8098 12.581 31.9992 11.8938C32.2906 10.9901 32.9257 10.4893 33.7748 10.1956C34.2121 10.0613 34.6622 9.97281 35.1178 9.93157H35.1201ZM63.8312 27.3203C61.7074 27.3499 59.1989 27.8257 57.2959 29.1619C56.7086 29.5693 56.8111 30.1339 57.4644 30.0587C59.6041 29.8015 64.3662 29.2233 65.2175 30.3114C66.0711 31.3995 64.2751 35.8884 63.4807 37.8961C63.2348 38.4948 63.7538 38.7429 64.3024 38.2876C67.8626 35.3057 68.7868 29.0549 68.0583 28.158C67.6941 27.7073 65.955 27.2908 63.8312 27.3203ZM0.495027 29.5967C-0.00121029 29.6649 -0.215184 30.2932 0.303816 30.7917C9.21787 39.1549 21.0001 43.25 34.0821 43.25C43.4127 43.25 54.2434 40.2066 61.7211 34.4702C62.9571 33.5142 61.9032 32.0869 60.6376 32.6492C52.2539 36.3505 43.1464 38.1328 34.8583 38.1328C22.5753 38.1328 10.6838 35.5674 1.06638 29.7423C0.897463 29.6296 0.694996 29.5782 0.49275 29.5967H0.495027Z" fill="black"/>
</svg>
