<svg width="57" height="56" viewBox="0 0 57 56" fill="none" xmlns="http://www.w3.org/2000/svg">
<path d="M12.017 35.3833C12.0138 36.9425 11.3935 38.4372 10.2918 39.5406C9.18999 40.644 7.69628 41.2665 6.137 41.272C4.57622 41.2692 3.08019 40.6479 1.97671 39.5441C0.873236 38.4403 0.252313 36.944 0.25 35.3833C0.255086 33.8243 0.877233 32.3308 1.98041 31.2292C3.08359 30.1277 4.57804 29.5078 6.137 29.505H12.017V35.3833ZM14.978 35.3833C14.9831 33.824 15.6055 32.3302 16.709 31.2286C17.8126 30.127 19.3075 29.5073 20.8668 29.505C22.4245 29.5092 23.9172 30.1298 25.0187 31.2313C26.1202 32.3328 26.7408 33.8255 26.745 35.3833V50.113C26.7422 51.672 26.1223 53.1664 25.0208 54.2696C23.9192 55.3728 22.4257 55.9949 20.8668 56C19.3064 55.9963 17.811 55.3749 16.7075 54.2718C15.604 53.1686 14.9822 51.6734 14.978 50.113V35.3833ZM20.8668 11.767C19.3075 11.7638 17.8128 11.1435 16.7094 10.0418C15.606 8.93999 14.9835 7.44628 14.978 5.887C14.9822 4.32665 15.604 2.83142 16.7075 1.72824C17.811 0.625062 19.3064 0.00369528 20.8668 0C22.4257 0.00508616 23.9192 0.627233 25.0208 1.73041C26.1223 2.83359 26.7422 4.32804 26.745 5.887V11.767H20.8668ZM20.8668 14.728C22.4264 14.7317 23.921 15.3537 25.0229 16.4575C26.1248 17.5614 26.7441 19.0571 26.745 20.6168C26.7427 22.175 26.1226 23.6689 25.0207 24.7707C23.9189 25.8726 22.425 26.4927 20.8668 26.495H6.137C4.57804 26.4922 3.08359 25.8723 1.98041 24.7708C0.877233 23.6692 0.255086 22.1757 0.25 20.6168C0.253695 19.0564 0.875062 17.561 1.97824 16.4575C3.08142 15.354 4.57665 14.7322 6.137 14.728H20.8668ZM44.483 20.6168C44.4844 19.0569 45.104 17.5612 46.2062 16.4574C47.3084 15.3536 48.8032 14.7317 50.363 14.728C51.9234 14.7322 53.4186 15.354 54.5218 16.4575C55.6249 17.561 56.2463 19.0564 56.25 20.6168C56.2449 22.1757 55.6228 23.6692 54.5196 24.7708C53.4164 25.8723 51.922 26.4922 50.363 26.495H44.483V20.6168ZM41.522 20.6168C41.5169 22.176 40.8945 23.6698 39.791 24.7714C38.6874 25.873 37.1925 26.4927 35.6333 26.495C34.0755 26.4908 32.5828 25.8702 31.4813 24.7687C30.3798 23.6672 29.7592 22.1745 29.755 20.6168V5.887C29.7578 4.32804 30.3777 2.83359 31.4792 1.73041C32.5808 0.627233 34.0743 0.00508616 35.6333 0C37.194 0.00231323 38.6903 0.623236 39.7941 1.72671C40.8979 2.83019 41.5192 4.32622 41.522 5.887V20.6168ZM35.6333 44.233C38.8882 44.233 41.5132 46.8667 41.522 50.113C41.5192 51.6738 40.8979 53.1698 39.7941 54.2733C38.6903 55.3768 37.194 55.9977 35.6333 56C34.0743 55.9949 32.5808 55.3728 31.4792 54.2696C30.3777 53.1664 29.7578 51.672 29.755 50.113V44.233H35.6333ZM35.6333 41.272C34.074 41.2669 32.5802 40.6445 31.4786 39.541C30.377 38.4374 29.7573 36.9425 29.755 35.3833C29.7573 33.825 30.3774 32.3311 31.4793 31.2293C32.5811 30.1274 34.075 29.5073 35.6333 29.505H50.363C51.922 29.5078 53.4164 30.1277 54.5196 31.2292C55.6228 32.3308 56.2449 33.8243 56.25 35.3833C56.2477 36.944 55.6268 38.4403 54.5233 39.5441C53.4198 40.6479 51.9238 41.2692 50.363 41.272H35.6333Z" fill="black"/>
</svg>
