<svg width="98" height="29" viewBox="0 0 98 29" fill="none" xmlns="http://www.w3.org/2000/svg">
<path d="M18.7898 13.1832L13.527 13.5071C13.437 13.0573 13.2436 12.6525 12.9467 12.2926C12.6499 11.9238 12.2585 11.6314 11.7727 11.4155C11.2959 11.1906 10.7247 11.0781 10.0589 11.0781C9.16832 11.0781 8.41714 11.267 7.8054 11.6449C7.19366 12.0137 6.88778 12.5085 6.88778 13.1293C6.88778 13.6241 7.0857 14.0424 7.48153 14.3842C7.87737 14.7261 8.55658 15.0005 9.51918 15.2074L13.2706 15.9631C15.2857 16.3769 16.7881 17.0426 17.7777 17.9602C18.7673 18.8778 19.2621 20.0833 19.2621 21.5767C19.2621 22.9351 18.8617 24.1271 18.0611 25.1527C17.2694 26.1783 16.1809 26.9789 14.7955 27.5547C13.419 28.1214 11.8312 28.4048 10.032 28.4048C7.28812 28.4048 5.10204 27.8336 3.47372 26.6911C1.8544 25.5395 0.905303 23.9742 0.626421 21.995L6.28054 21.6982C6.45147 22.5348 6.86529 23.1735 7.52202 23.6143C8.17874 24.0462 9.01989 24.2621 10.0455 24.2621C11.053 24.2621 11.8627 24.0687 12.4744 23.6818C13.0952 23.286 13.41 22.7777 13.419 22.157C13.41 21.6352 13.1896 21.2079 12.7578 20.875C12.326 20.5331 11.6603 20.2723 10.7607 20.0923L7.17117 19.3771C5.14702 18.9723 3.64015 18.2706 2.65057 17.272C1.66998 16.2734 1.17969 15.0005 1.17969 13.4531C1.17969 12.1217 1.53954 10.9747 2.25923 10.0121C2.98793 9.04948 4.009 8.30729 5.32244 7.78551C6.64489 7.26373 8.19224 7.00284 9.96449 7.00284C12.5824 7.00284 14.6425 7.55611 16.1449 8.66264C17.6563 9.76918 18.5379 11.276 18.7898 13.1832ZM28.6305 0.363636V28H22.8819V0.363636H28.6305ZM39.146 28.3913C37.8235 28.3913 36.645 28.1619 35.6104 27.7031C34.5759 27.2353 33.7572 26.5471 33.1545 25.6385C32.5607 24.7209 32.2638 23.5784 32.2638 22.2109C32.2638 21.0594 32.4753 20.0923 32.8981 19.3097C33.3209 18.527 33.8967 17.8973 34.6254 17.4205C35.354 16.9437 36.1817 16.5838 37.1083 16.3409C38.0439 16.098 39.0245 15.9271 40.0501 15.8281C41.2556 15.7022 42.2272 15.5852 42.9648 15.4773C43.7025 15.3603 44.2378 15.1894 44.5707 14.9645C44.9035 14.7396 45.07 14.4067 45.07 13.9659V13.8849C45.07 13.0303 44.8001 12.3691 44.2603 11.9013C43.7295 11.4335 42.9738 11.1996 41.9933 11.1996C40.9587 11.1996 40.1355 11.429 39.5238 11.8878C38.9121 12.3376 38.5072 12.9044 38.3093 13.5881L32.9925 13.1562C33.2624 11.8968 33.7932 10.8082 34.5849 9.89062C35.3765 8.96401 36.3976 8.25331 37.6481 7.75852C38.9076 7.25473 40.3649 7.00284 42.0202 7.00284C43.1718 7.00284 44.2738 7.13778 45.3264 7.40767C46.3879 7.67756 47.328 8.09588 48.1467 8.66264C48.9743 9.2294 49.6265 9.9581 50.1033 10.8487C50.5801 11.7303 50.8185 12.7874 50.8185 14.0199V28H45.3668V25.1257H45.2049C44.872 25.7734 44.4267 26.3447 43.869 26.8395C43.3112 27.3253 42.641 27.7076 41.8583 27.9865C41.0756 28.2564 40.1715 28.3913 39.146 28.3913ZM40.7923 24.424C41.6379 24.424 42.3846 24.2576 43.0323 23.9247C43.68 23.5829 44.1883 23.1241 44.5572 22.5483C44.926 21.9725 45.1104 21.3203 45.1104 20.5916V18.392C44.9305 18.509 44.6831 18.617 44.3683 18.7159C44.0624 18.8059 43.716 18.8913 43.3292 18.9723C42.9424 19.0443 42.5555 19.1117 42.1687 19.1747C41.7818 19.2287 41.431 19.2782 41.1161 19.3232C40.4414 19.4221 39.8522 19.5795 39.3484 19.7955C38.8446 20.0114 38.4532 20.3037 38.1744 20.6726C37.8955 21.0324 37.756 21.4822 37.756 22.022C37.756 22.8047 38.0394 23.4029 38.6062 23.8168C39.1819 24.2216 39.9106 24.424 40.7923 24.424ZM64.6435 28.4048C62.5204 28.4048 60.6941 27.955 59.1648 27.0554C57.6444 26.1468 56.4749 24.8873 55.6562 23.277C54.8466 21.6667 54.4418 19.8134 54.4418 17.7173C54.4418 15.5942 54.8511 13.732 55.6697 12.1307C56.4974 10.5204 57.6714 9.26539 59.1918 8.36577C60.7121 7.45715 62.5204 7.00284 64.6165 7.00284C66.4247 7.00284 68.008 7.3312 69.3665 7.98792C70.7249 8.64465 71.8 9.56676 72.5916 10.7543C73.3833 11.9418 73.8196 13.3362 73.9006 14.9375H68.4759C68.3229 13.9029 67.9181 13.0708 67.2614 12.4411C66.6136 11.8023 65.7635 11.483 64.7109 11.483C63.8203 11.483 63.0421 11.7259 62.3764 12.2116C61.7197 12.6884 61.2069 13.3857 60.8381 14.3033C60.4692 15.2209 60.2848 16.3319 60.2848 17.6364C60.2848 18.9588 60.4647 20.0833 60.8246 21.0099C61.1934 21.9366 61.7107 22.6428 62.3764 23.1286C63.0421 23.6143 63.8203 23.8572 64.7109 23.8572C65.3677 23.8572 65.9569 23.7223 66.4787 23.4524C67.0095 23.1825 67.4458 22.7912 67.7876 22.2784C68.1385 21.7566 68.3679 21.1314 68.4759 20.4027H73.9006C73.8106 21.986 73.3788 23.3804 72.6051 24.5859C71.8404 25.7824 70.7834 26.718 69.4339 27.3928C68.0845 28.0675 66.4877 28.4048 64.6435 28.4048ZM82.79 22.0355L82.8034 15.1399H83.6401L90.2793 7.27273H96.878L87.9583 17.6903H86.5953L82.79 22.0355ZM77.5811 28V0.363636H83.3297V28H77.5811ZM90.5357 28L84.4363 18.9723L88.2686 14.9105L97.2694 28H90.5357Z" fill="black"/>
</svg>
