<svg width="107" height="40" viewBox="0 0 107 40" fill="none" xmlns="http://www.w3.org/2000/svg">
<path d="M27.5771 3.61063L20.4047 4.96536L20.3716 25.9341C20.3716 29.8069 23.6513 32.3102 28.0078 32.3102C30.4262 32.3102 32.1986 31.9126 33.1759 31.4414V26.4643C32.2317 26.8029 27.5936 28.0104 27.5936 24.1524V14.846H33.1759V9.27986H27.5936L27.5771 3.61063ZM42.336 11.2089L41.8887 9.27986H35.528V31.839H42.866V16.6572C44.6053 14.6251 47.5372 15.0227 48.4814 15.2878V9.27986C47.4875 8.97063 44.0587 8.39635 42.336 11.2089ZM57.625 0.5625L50.2372 1.9614V7.29195L57.625 5.89305V0.5625ZM7.6832 15.921C7.6832 14.9049 8.64393 14.5073 10.1844 14.4926C12.4206 14.4926 15.2697 15.0963 17.5059 16.1713V10.0161C15.0709 9.16206 12.636 8.82338 10.201 8.82338C4.23779 8.82338 0.262329 11.5917 0.262329 16.2155C0.262329 23.4603 11.4433 22.2823 11.4433 25.404C11.4433 26.6115 10.2672 27.0091 8.62737 27.0091C6.1924 27.0091 3.04515 26.1109 0.577053 24.9181V30.8082C3.31018 31.8537 6.07645 32.2955 8.6108 32.2955C14.7231 32.2955 18.9304 29.9689 18.9304 25.2568C18.9304 17.4671 7.6832 18.866 7.6832 15.921ZM106.258 20.8245C106.258 14.1245 102.614 8.8381 95.6238 8.8381C88.6336 8.8381 84.3765 14.1245 84.3765 20.7803C84.3765 28.6583 89.3956 32.2955 96.5514 32.2955C100.063 32.2955 102.697 31.5887 104.701 30.6021V25.6838C102.697 26.5821 100.394 27.1269 97.479 27.1269C94.6133 27.1269 92.0956 26.2287 91.7643 23.1658H106.159C106.192 22.8271 106.258 21.4577 106.258 20.8245ZM91.698 18.3506C91.698 15.4056 93.7354 14.1687 95.5741 14.1687C97.3796 14.1687 99.3011 15.4056 99.3011 18.3506H91.698ZM72.9968 8.8381C70.1145 8.8381 68.2593 10.0456 67.2323 10.8849L66.8513 9.26514H60.3747V39.4225L67.7293 38.0383L67.7458 30.6462C68.806 31.3383 70.3796 32.2955 72.9471 32.2955C78.2145 32.2955 83.0182 28.8792 83.0182 20.5741C83.0348 12.9759 78.1649 8.8381 72.9968 8.8381ZM71.2409 26.8766C69.5182 26.8766 68.4912 26.317 67.779 25.6396L67.7293 15.921C68.4912 15.17 69.5514 14.6251 71.2409 14.6251C73.9244 14.6251 75.7796 17.3051 75.7796 20.7214C75.7961 24.2407 73.9741 26.8766 71.2409 26.8766ZM50.2538 31.839H57.6415V9.27986H50.2538V31.839Z" fill="black"/>
</svg>
